<svg width="40" height="40" viewBox="0 0 40 40" fill="none" xmlns="http://www.w3.org/2000/svg">
<path d="M0 19.9977C0 8.95325 8.95325 0 19.9977 0C31.0421 0 39.9953 8.95325 39.9953 19.9977C39.9953 31.0421 31.0421 39.9953 19.9977 39.9953C8.95325 39.9953 0 31.0421 0 19.9977Z" fill="#1E2939"/>
<g clip-path="url(#clip0_29_4679)">
<path d="M24.983 11.6699H22.4846C21.3803 11.6699 20.3212 12.1086 19.5403 12.8895C18.7594 13.6704 18.3207 14.7295 18.3207 15.8339V18.3323H15.8223V21.6635H18.3207V28.3258H21.6518V21.6635H24.1502L24.983 18.3323H21.6518V15.8339C21.6518 15.613 21.7396 15.4012 21.8958 15.245C22.0519 15.0888 22.2638 15.0011 22.4846 15.0011H24.983V11.6699Z" stroke="#D1D5DC" stroke-width="1.66559" stroke-linecap="round" stroke-linejoin="round"/>
</g>
<defs>
<clipPath id="clip0_29_4679">
<rect width="19.9871" height="19.9871" fill="white" transform="translate(9.99316 10.0039)"/>
</clipPath>
</defs>
</svg>
