<svg width="40" height="40" viewBox="0 0 40 40" fill="none" xmlns="http://www.w3.org/2000/svg">
<path d="M0 19.9977C0 8.95325 8.95325 0 19.9977 0C31.0421 0 39.9953 8.95325 39.9953 19.9977C39.9953 31.0421 31.0421 39.9953 19.9977 39.9953C8.95325 39.9953 0 31.0421 0 19.9977Z" fill="#1E2939"/>
<g clip-path="url(#clip0_29_4674)">
<path d="M24.1511 11.6699H15.8232C13.5235 11.6699 11.6592 13.5342 11.6592 15.8339V24.1619C11.6592 26.4616 13.5235 28.3258 15.8232 28.3258H24.1511C26.4508 28.3258 28.3151 26.4616 28.3151 24.1619V15.8339C28.3151 13.5342 26.4508 11.6699 24.1511 11.6699Z" stroke="#D1D5DC" stroke-width="1.66559" stroke-linecap="round" stroke-linejoin="round"/>
<path d="M23.3177 19.4734C23.4205 20.1665 23.3021 20.8744 22.9794 21.4963C22.6567 22.1182 22.1461 22.6226 21.5203 22.9376C20.8944 23.2526 20.1851 23.3622 19.4934 23.2509C18.8016 23.1396 18.1625 22.813 17.6671 22.3175C17.1716 21.8221 16.845 21.183 16.7337 20.4913C16.6224 19.7995 16.732 19.0902 17.0471 18.4644C17.3621 17.8385 17.8664 17.3279 18.4883 17.0052C19.1103 16.6825 19.8181 16.5641 20.5112 16.6669C21.2182 16.7717 21.8727 17.1012 22.3781 17.6065C22.8835 18.1119 23.2129 18.7664 23.3177 19.4734Z" stroke="#D1D5DC" stroke-width="1.66559" stroke-linecap="round" stroke-linejoin="round"/>
<path d="M24.5674 15.418H24.5757" stroke="#D1D5DC" stroke-width="1.66559" stroke-linecap="round" stroke-linejoin="round"/>
</g>
<defs>
<clipPath id="clip0_29_4674">
<rect width="19.9871" height="19.9871" fill="white" transform="translate(9.99316 10.0039)"/>
</clipPath>
</defs>
</svg>
