<svg width="40" height="40" viewBox="0 0 40 40" fill="none" xmlns="http://www.w3.org/2000/svg">
<path d="M0 19.9977C0 8.95325 8.95325 0 19.9977 0C31.0421 0 39.9953 8.95325 39.9953 19.9977C39.9953 31.0421 31.0421 39.9953 19.9977 39.9953C8.95325 39.9953 0 31.0421 0 19.9977Z" fill="#1E2939"/>
<g clip-path="url(#clip0_29_4669)">
<path d="M23.3181 16.666C24.6433 16.666 25.9142 17.1925 26.8513 18.1295C27.7884 19.0666 28.3148 20.3376 28.3148 21.6628V27.4924H24.9837V21.6628C24.9837 21.221 24.8082 20.7974 24.4958 20.485C24.1835 20.1727 23.7598 19.9972 23.3181 19.9972C22.8763 19.9972 22.4527 20.1727 22.1403 20.485C21.828 20.7974 21.6525 21.221 21.6525 21.6628V27.4924H18.3213V21.6628C18.3213 20.3376 18.8477 19.0666 19.7848 18.1295C20.7219 17.1925 21.9928 16.666 23.3181 16.666Z" stroke="#D1D5DC" stroke-width="1.66559" stroke-linecap="round" stroke-linejoin="round"/>
<path d="M14.9904 17.5H11.6592V27.4935H14.9904V17.5Z" stroke="#D1D5DC" stroke-width="1.66559" stroke-linecap="round" stroke-linejoin="round"/>
<path d="M13.3248 15.0011C14.2447 15.0011 14.9904 14.2554 14.9904 13.3355C14.9904 12.4156 14.2447 11.6699 13.3248 11.6699C12.4049 11.6699 11.6592 12.4156 11.6592 13.3355C11.6592 14.2554 12.4049 15.0011 13.3248 15.0011Z" stroke="#D1D5DC" stroke-width="1.66559" stroke-linecap="round" stroke-linejoin="round"/>
</g>
<defs>
<clipPath id="clip0_29_4669">
<rect width="19.9871" height="19.9871" fill="white" transform="translate(9.99316 10.0039)"/>
</clipPath>
</defs>
</svg>
