<svg width="40" height="40" viewBox="0 0 40 40" fill="none" xmlns="http://www.w3.org/2000/svg">
<path d="M0 19.9977C0 8.95325 8.95325 0 19.9977 0C31.0421 0 39.9953 8.95325 39.9953 19.9977C39.9953 31.0421 31.0421 39.9953 19.9977 39.9953C8.95325 39.9953 0 31.0421 0 19.9977Z" fill="#1E2939"/>
<g clip-path="url(#clip0_29_4666)">
<path d="M28.3151 13.3347C28.3151 13.3347 27.7321 15.0835 26.6495 16.1662C27.982 24.4941 18.8212 30.5735 11.6592 25.8266C13.4913 25.9099 15.3235 25.3269 16.656 24.161C12.492 22.9118 10.41 17.9983 12.492 14.1674C14.3241 16.3327 17.1556 17.5819 19.9871 17.4986C19.2376 14.0009 23.3183 12.0022 25.8167 14.334C26.7328 14.334 28.3151 13.3347 28.3151 13.3347Z" stroke="#D1D5DC" stroke-width="1.66559" stroke-linecap="round" stroke-linejoin="round"/>
</g>
<defs>
<clipPath id="clip0_29_4666">
<rect width="19.9871" height="19.9871" fill="white" transform="translate(9.99316 10.0039)"/>
</clipPath>
</defs>
</svg>
