<svg width="24" height="24" viewBox="0 0 24 24" fill="none" xmlns="http://www.w3.org/2000/svg">
<path d="M23.498 6.186a3.016 3.016 0 0 0-2.122-2.136C19.505 3.545 12 3.545 12 3.545s-7.505 0-9.377.505a3.017 3.017 0 0 0-2.122 2.136C0 12.01 0 12.01 0 12.01s0 5.823.501 7.824a3.017 3.017 0 0 0 2.122 2.136c1.871.505 9.377.505 9.377.505s7.505 0 9.377-.505a3.015 3.015 0 0 0 2.122-2.136c.501-2.001.501-7.824.501-7.824s0-5.823-.501-7.824zM9.545 15.568V1.443l6.531 3.563-6.531 3.562z" fill="currentColor"/>
</svg>
